HIERARCHY
ROOT joint_Root
{
	OFFSET 0.0 0.0 0.0
	CHANNELS 6 Xposition Yposition Zposition Zrotation Xrotation Yrotation 
	JOINT Hips
	{
		OFFSET -0.726466 93.3139 -2.00062
		CHANNELS 6 Xposition Yposition Zposition Zrotation Xrotation Yrotation 
		JOINT Spine
		{
			OFFSET 15.7357 0.0 0.0
			CHANNELS 6 Xposition Yposition Zposition Zrotation Xrotation Yrotation 
			JOINT Chest
			{
				OFFSET 8.98455 -0.406207 0.0
				CHANNELS 6 Xposition Yposition Zposition Zrotation Xrotation Yrotation 
				JOINT Neck
				{
					OFFSET 16.3773 0.0 0.0
					CHANNELS 6 Xposition Yposition Zposition Zrotation Xrotation Yrotation 
					JOINT Head
					{
						OFFSET 6.45672 0.0 0.0
						CHANNELS 6 Xposition Yposition Zposition Zrotation Xrotation Yrotation 
						End Site
						{
							OFFSET 0.0 0.0 0.0
						}
					}
				}
				JOINT Shoulder_L
				{
					OFFSET 12.9942 -0.242716 4.98039
					CHANNELS 6 Xposition Yposition Zposition Zrotation Xrotation Yrotation 
					JOINT UpperArm_L
					{
						OFFSET 5.34809 0.0 0.0
						CHANNELS 6 Xposition Yposition Zposition Zrotation Xrotation Yrotation 
						JOINT LowerArm_L
						{
							OFFSET 24.3286 1.87007e-05 0.0
							CHANNELS 6 Xposition Yposition Zposition Zrotation Xrotation Yrotation 
							JOINT Hand_L
							{
								OFFSET 22.2916 0.0 0.0
								CHANNELS 6 Xposition Yposition Zposition Zrotation Xrotation Yrotation 
								End Site
								{
									OFFSET 0.0 0.0 0.0
								}
							}
						}
					}
				}
				JOINT Shoulder_R
				{
					OFFSET 12.9945 -0.242716 -4.98039
					CHANNELS 6 Xposition Yposition Zposition Zrotation Xrotation Yrotation 
					JOINT UpperArm_R
					{
						OFFSET -5.34813 0.0 0.0
						CHANNELS 6 Xposition Yposition Zposition Zrotation Xrotation Yrotation 
						JOINT LowerArm_R
						{
							OFFSET -24.3289 0.000322201 0.0
							CHANNELS 6 Xposition Yposition Zposition Zrotation Xrotation Yrotation 
							JOINT Hand_R
							{
								OFFSET -22.2915 -0.000108084 0.0
								CHANNELS 6 Xposition Yposition Zposition Zrotation Xrotation Yrotation 
								End Site
								{
									OFFSET 0.0 0.0 0.0
								}
							}
						}
					}
				}
			}
		}
		JOINT UpperLeg_L
		{
			OFFSET -2.19248 -6.46944 0.0
			CHANNELS 6 Xposition Yposition Zposition Zrotation Xrotation Yrotation 
			JOINT LowerLeg_L
			{
				OFFSET 39.0811 0.0 -1.23785e-05
				CHANNELS 6 Xposition Yposition Zposition Zrotation Xrotation Yrotation 
				JOINT Foot_L
				{
					OFFSET 40.9854 0.0 -1.26872e-05
					CHANNELS 6 Xposition Yposition Zposition Zrotation Xrotation Yrotation 
					JOINT Toes_L
					{
						OFFSET 11.7543 0.0 0.0
						CHANNELS 6 Xposition Yposition Zposition Zrotation Xrotation Yrotation 
						End Site
						{
							OFFSET 0.0 0.0 0.0
						}
					}
				}
			}
		}
		JOINT UpperLeg_R
		{
			OFFSET -2.19251 6.46944 0.0
			CHANNELS 6 Xposition Yposition Zposition Zrotation Xrotation Yrotation 
			JOINT LowerLeg_R
			{
				OFFSET -39.0811 -0.00228153 -0.0401928
				CHANNELS 6 Xposition Yposition Zposition Zrotation Xrotation Yrotation 
				JOINT Foot_R
				{
					OFFSET -40.9854 0.0 0.0
					CHANNELS 6 Xposition Yposition Zposition Zrotation Xrotation Yrotation 
					JOINT Toes_R
					{
						OFFSET -11.7543 0.0 0.0
						CHANNELS 6 Xposition Yposition Zposition Zrotation Xrotation Yrotation 
						End Site
						{
							OFFSET 0.0 0.0 0.0
						}
					}
				}
			}
		}
	}
}
MOTION
Frames:	5
Frame Time:	0.0333333
0.000000 0.000000 0.000000 0.000000 0.000000 -0.000000 -111.309000 91.281800 189.904000 91.142300 78.009100 4.483920 15.735700 0.000005 -0.000001 90.001700 83.652300 -90.203800 8.984550 -0.406207 -0.000000 4.929370 0.005370 -0.403959 16.377300 -0.000001 -0.000001 6.274030 6.227390 0.583675 6.456720 -0.000001 -0.000000 6.982250 11.369300 -6.465480 12.994200 -0.242716 4.980390 -89.749100 -0.682597 -69.814600 5.348090 -0.000007 -0.000001 -64.596400 31.502500 -22.659800 24.328600 0.000019 0.000005 3.462980 6.876350 -26.814100 22.291600 -0.000001 0.000005 8.478380 5.512120 -7.028390 12.994500 -0.242716 -4.980390 88.140800 5.684760 -71.855600 -5.348130 -0.000001 -0.000004 -69.957700 28.851100 -5.745610 -24.328900 0.000322 -0.000009 2.951770 13.214000 -12.715900 -22.291500 -0.000108 -0.000004 7.824030 5.335540 -0.947746 -2.192480 -6.469440 -0.000000 177.646000 -8.537170 -5.291500 39.081100 -0.000007 -0.000012 -0.054835 0.102533 28.138200 40.985400 -0.000006 -0.000013 3.443670 -1.657900 -67.974500 11.754300 -0.000000 0.000003 -0.001129 -0.017230 -17.277500 -2.192510 6.469440 -0.000001 173.752000 9.064970 164.385000 -39.081100 -0.002282 -0.040193 0.135556 -0.059791 65.695700 -40.985400 0.000008 0.000006 1.665680 -3.386020 -49.157000 -11.754300 -0.000006 -0.000006 -0.017097 -0.150641 -22.722800
0.000000 0.000000 0.000000 0.000000 0.000000 -0.000000 -108.741000 91.486800 190.020000 87.154700 79.361600 8.378860 15.735700 0.000005 -0.000001 86.693300 83.637500 -86.498600 8.984550 -0.406207 -0.000000 4.939420 -0.737336 0.420678 16.377300 -0.000001 -0.000001 6.546830 6.130660 0.603090 6.456720 -0.000001 -0.000000 7.376140 11.778400 -6.307730 12.994200 -0.242716 4.980390 -89.645600 -0.982371 -70.158900 5.348090 -0.000007 -0.000001 -62.682600 30.912500 -25.933600 24.328600 0.000019 0.000005 3.413630 6.165370 -29.048000 22.291600 -0.000001 0.000005 9.007350 5.520540 -7.384940 12.994500 -0.242716 -4.980390 88.120300 5.557810 -71.280200 -5.348130 -0.000001 -0.000004 -70.075400 27.046100 -3.876880 -24.328900 0.000322 -0.000009 2.900970 12.882400 -12.809800 -22.291500 -0.000108 -0.000004 8.223930 5.336660 -0.980709 -2.192480 -6.469440 -0.000000 178.504000 -8.594170 -2.468100 39.081100 -0.000007 -0.000012 -0.045269 0.092098 26.175600 40.985400 -0.000006 -0.000013 3.787800 -0.311960 -68.858100 11.754300 -0.000000 0.000003 -0.000951 -0.014712 -17.175100 -2.192510 6.469440 -0.000001 175.466000 10.470000 162.084000 -39.081100 -0.002282 -0.040193 0.098689 -0.052941 60.996600 -40.985400 0.000008 0.000006 1.705050 -3.416900 -52.504300 -11.754300 -0.000006 -0.000006 -0.016910 -0.149530 -22.677100
0.000000 0.000000 0.000000 0.000000 0.000000 -0.000000 -106.278000 91.540600 190.140000 83.262500 80.384000 12.053500 15.735700 0.000005 -0.000001 84.440800 83.615100 -83.917100 8.984550 -0.406207 -0.000000 4.950490 -1.247470 1.100300 16.377300 -0.000001 -0.000001 6.573470 6.064720 0.651852 6.456720 -0.000001 -0.000000 7.561040 12.149700 -6.223140 12.994200 -0.242716 4.980390 -89.594800 -1.135630 -70.363100 5.348090 -0.000007 -0.000001 -60.827700 30.183100 -28.851600 24.328600 0.000019 0.000005 3.270400 5.414620 -31.199300 22.291600 -0.000001 0.000005 9.103290 5.527810 -7.698810 12.994500 -0.242716 -4.980390 88.049800 5.632490 -70.866700 -5.348130 -0.000001 -0.000004 -69.922200 25.571700 -2.205780 -24.328900 0.000322 -0.000009 2.851390 12.214600 -13.251700 -22.291500 -0.000108 -0.000004 8.817960 5.340550 -1.095280 -2.192480 -6.469440 -0.000000 179.362000 -9.123630 -0.007791 39.081100 -0.000007 -0.000012 -0.045968 0.100703 24.535100 40.985400 -0.000006 -0.000013 4.132650 1.299320 -69.868300 11.754300 -0.000000 0.000003 -0.001144 -0.017437 -17.285900 -2.192510 6.469440 -0.000001 177.042000 11.473100 160.512000 -39.081100 -0.002282 -0.040193 0.064585 -0.045387 53.506400 -40.985400 0.000008 0.000006 1.304230 -3.104100 -54.554000 -11.754300 -0.000006 -0.000006 -0.016888 -0.149398 -22.671700
0.000000 0.000000 0.000000 0.000000 0.000000 -0.000000 -103.842000 91.466000 190.326000 80.096700 81.165700 14.984300 15.735700 0.000005 -0.000001 83.002500 83.567100 -82.248100 8.984550 -0.406207 -0.000000 5.016340 -1.582310 1.576470 16.377300 -0.000001 -0.000001 6.519780 6.089260 0.741617 6.456720 -0.000001 -0.000000 7.452990 12.382900 -6.214690 12.994200 -0.242716 4.980390 -89.572000 -1.216740 -70.616100 5.348090 -0.000007 -0.000001 -59.147000 29.452900 -31.151000 24.328600 0.000019 0.000005 3.035370 4.611840 -33.406000 22.291600 -0.000001 0.000005 9.606720 5.532890 -7.922320 12.994500 -0.242716 -4.980390 87.948300 5.865250 -70.681200 -5.348130 -0.000001 -0.000004 -69.713100 24.418100 -1.014050 -24.328900 0.000322 -0.000009 2.770430 11.837300 -13.278100 -22.291500 -0.000108 -0.000004 9.291650 5.345310 -1.236830 -2.192480 -6.469440 -0.000000 -179.988000 -9.235950 2.334060 39.081100 -0.000007 -0.000012 -0.057359 0.134880 23.038100 40.985400 -0.000006 -0.000013 4.249500 2.229340 -70.917600 11.754300 -0.000000 0.000003 -0.000911 -0.014140 -17.151900 -2.192510 6.469440 -0.000001 178.404000 12.203100 160.109000 -39.081100 -0.002282 -0.040193 0.035511 -0.034218 43.296900 -40.985400 0.000008 0.000006 1.141070 -1.946200 -55.237000 -11.754300 -0.000006 -0.000006 -0.015872 -0.143239 -22.418600
0.000000 0.000000 0.000000 0.000000 0.000000 -0.000000 -101.448000 91.282600 190.560000 78.023300 81.744200 16.357600 15.735700 0.000005 -0.000001 81.997800 83.665300 -81.109600 8.984550 -0.406207 -0.000000 4.796270 -1.783390 1.849110 16.377300 -0.000001 -0.000001 6.411530 6.114640 0.807353 6.456720 -0.000001 -0.000000 7.145370 12.534500 -6.167340 12.994200 -0.242716 4.980390 -89.553700 -1.279710 -70.772600 5.348090 -0.000007 -0.000001 -57.738400 28.814900 -32.740900 24.328600 0.000019 0.000005 2.964470 4.161520 -35.511800 22.291600 -0.000001 0.000005 10.294200 5.543350 -8.392950 12.994500 -0.242716 -4.980390 87.876500 6.066540 -70.666900 -5.348130 -0.000001 -0.000004 -69.715700 23.909400 -0.381274 -24.328900 0.000322 -0.000009 2.700750 12.097300 -12.690200 -22.291500 -0.000108 -0.000004 9.535750 5.343150 -1.172610 -2.192480 -6.469440 -0.000000 -179.409000 -9.782290 4.240920 39.081100 -0.000007 -0.000012 -0.077408 0.196156 21.535300 40.985400 -0.000006 -0.000013 4.383590 3.536540 -72.017000 11.754300 -0.000000 0.000003 -0.000927 -0.014370 -17.161200 -2.192510 6.469440 -0.000001 179.667000 12.891500 160.382000 -39.081100 -0.002282 -0.040193 0.016906 -0.023097 30.498900 -40.985400 0.000008 0.000006 0.642505 0.179948 -53.133700 -11.754300 -0.000006 -0.000006 -0.016675 -0.148122 -22.619300
